<svg viewBox="0 0 1080 1080" fill="none" xmlns="http://www.w3.org/2000/svg">      <defs>  <filter id="filter" x="-20%" y="-20%" width="140%" height="140%" filterUnits="objectBoundingBox" primitiveUnits="userSpaceOnUse" color-interpolation-filters="linearRGB">    <feMorphology operator="dilate" radius="20 20" in="SourceAlpha" result="morphology"/>    <feFlood flood-color="#ffffff" flood-opacity="1" result="flood"/>    <feComposite in="flood" in2="morphology" operator="in" result="composite"/>    <feMerge result="merge">          <feMergeNode in="composite" result="mergeNode"/>      <feMergeNode in="SourceGraphic" result="mergeNode1"/>      </feMerge>  </filter></defs>      <g id="notion-avatar" filter="url(#filter)">        <g id="notion-avatar-face" fill="#ffffff">      <!--?xml version="1.0" encoding="UTF-8"?-->    <title>Face/ 8</title>    <g id="Face/-8" stroke="none" stroke-width="1" fill-rule="evenodd" stroke-linecap="round" stroke-linejoin="round">        <path d="M532,379 C664.54834,379 772,486.45166 772,619 C772,751.54834 724.54834,899 592,899 C492.560218,899 373.476049,816.010833 320.189513,718.584987 C317.498129,718.859681 314.765451,719 312,719 C267.81722,719 232,683.18278 232,639 C232,599.134956 261.158843,566.080325 299.312086,560.00055 C325.599297,455.979213 419.809919,379 532,379 Z M295.858895,624.545187 L304.141105,655.454813" id="Path" stroke="#000000" stroke-width="24"/>    </g>    </g><g id="notion-avatar-nose">      <g id="Nose/ 13"><path id="Path" fill-rule="evenodd" clip-rule="evenodd" d="M644 560C644 560 665.892 613.522 673 623C676 627 693.906 641.256 692.774 653.58C690.065 683.076 644 684.359 644 684.359C644 684.359 700 689.489 700 653.58C700 637.222 687 632 674 620C666.959 613.5 644 560 644 560Z" fill="black" stroke="black" stroke-width="6" stroke-linecap="round" stroke-linejoin="round"/></g>    </g><g id="notion-avatar-mouth">      <!--?xml version="1.0" encoding="UTF-8"?-->    <title>Mouth/ 0</title>    <g id="Mouth/-0" stroke="none" stroke-width="1" fill="none" fill-rule="evenodd" stroke-linecap="round" stroke-linejoin="round">        <path d="M549,759 C576.33038,765.666667 599.663714,769 619,769 C638.336286,769 655.002953,765.666667 669,759" id="Path" stroke="#000000" stroke-width="16"/>    </g>    </g><g id="notion-avatar-eyes">      <!--?xml version="1.0" encoding="UTF-8"?-->    <title>Eyes/ 5</title>    <g id="Eyes/-5" stroke="none" stroke-width="1" fill="none" fill-rule="evenodd">        <g id="Group" transform="translate(538.000000, 507.000000)">            <g transform="translate(138.000000, 0.000000)">                <circle id="Oval" stroke="#000000" stroke-width="12" stroke-linecap="round" stroke-linejoin="round" cx="32" cy="32" r="32"/>                <path d="M4,18 C13.3333333,20.6666667 22.6666667,22 32,22 C41.3333333,22 50.6666667,20.6666667 60,18" id="Path" stroke="#000000" stroke-width="12" stroke-linecap="round" stroke-linejoin="round"/>                <circle id="Oval" fill="#000000" cx="32" cy="28" r="10"/>            </g>            <g transform="translate(0.000000, 1.000000)">                <circle id="Oval" stroke="#000000" stroke-width="12" stroke-linecap="round" stroke-linejoin="round" cx="32" cy="32" r="32"/>                <path d="M4,18 C13.3333333,20.6666667 22.6666667,22 32,22 C41.3333333,22 50.6666667,20.6666667 60,18" id="Path" stroke="#000000" stroke-width="12" stroke-linecap="round" stroke-linejoin="round"/>                <circle id="Oval" fill="#000000" cx="32" cy="28" r="10"/>            </g>        </g>    </g>    </g><g id="notion-avatar-eyebrows">      <!--?xml version="1.0" encoding="UTF-8"?-->    <title>Eyebrows/ 4</title>    <g id="Eyebrows/-4" stroke="none" stroke-width="1" fill="none" fill-rule="evenodd" stroke-linecap="round" stroke-linejoin="round">        <g id="Group" transform="translate(525.000000, 504.000000)" stroke="#000000" stroke-width="12">            <path d="M0,12 C12.8888889,4 27.8888889,0 45,0 C62.1111111,0 77.1111111,4 90,12" id="Path"/>            <path d="M138,12 C150.888889,4 165.888889,0 183,0 C200.111111,0 215.111111,4 228,12" id="Path"/>        </g>    </g>    </g><g id="notion-avatar-glasses">      <!--?xml version="1.0" encoding="UTF-8"?-->    <title>Glasses/ 2</title>    <g id="Glasses/-2" stroke="none" stroke-width="1" fill="none" fill-rule="evenodd" stroke-linecap="round" stroke-linejoin="round">        <path d="M574.189838,502.353993 C586.612079,503.247679 601.018598,506.362134 617.409394,511.697357 C622.107339,513.226543 629.521032,514.112461 639.650474,514.355109 L640.336909,514.337568 C650.115498,514.071859 657.30038,513.191789 661.891553,511.697357 C678.282349,506.362134 692.688868,503.247679 705.11111,502.353993 C722.696433,501.088862 751.030506,503.214809 790.113329,508.731836 L791.300947,508.900056 L791.300947,529.629258 C786.297933,531.828279 783.752241,534.010301 783.663873,536.175322 C781.481852,589.634841 763.639862,606 723.65829,606 C685.15235,606 666.860184,585.095985 650.56058,541.630375 C648.424017,535.932875 644.892754,533.024776 639.966791,532.906078 L639.650474,532.90229 C634.559091,532.90229 630.922389,535.811651 628.740368,541.630375 C612.440763,585.095985 594.148598,606 555.642657,606 C515.661085,606 497.819095,589.634841 495.637074,536.175322 C495.548712,534.010446 493.003357,531.828573 488.00101,529.629702 L488,530 L289,550 L293,541 L487.999,509 L488,508.900056 C527.696939,503.258104 556.426885,501.076083 574.189838,502.353993 Z M564.611618,508.971486 C532.97231,506.789465 518.789172,513.335528 512.243109,520.972603 C505.697045,528.609677 493.695928,595.161324 551.51949,598.434355 C609.343052,601.707387 614.798105,534.06473 611.525073,526.427656 C608.252042,518.790581 596.250925,511.153507 564.611618,508.971486 Z M714.580942,508.971486 C682.941634,511.153507 670.940518,518.790581 667.667486,526.427656 C664.394454,534.06473 669.849507,601.707387 727.673069,598.434355 C785.496631,595.161324 773.495514,528.609677 766.949451,520.972603 C760.403387,513.335528 746.220249,506.789465 714.580942,508.971486 Z" id="Combined-Shape" stroke="#000000" stroke-width="4" fill="#000000"/>    </g>    </g><g id="notion-avatar-hair">      <!--?xml version="1.0" encoding="UTF-8"?-->    <title>Hairstyle/ 0</title>    <g id="Hairstyle/-0" stroke="none" stroke-width="1" fill="none" fill-rule="evenodd"/>    </g><g id="notion-avatar-accessories">      <!--?xml version="1.0" encoding="UTF-8"?-->    <title>Accessories/ 0</title>    <g id="Accessories/-0" stroke="none" stroke-width="1" fill="none" fill-rule="evenodd"/>    </g><g id="notion-avatar-details">      <!--?xml version="1.0" encoding="UTF-8"?-->    <title>Details/ 0</title>    <g id="Details/-0" stroke="none" stroke-width="1" fill="none" fill-rule="evenodd"/>    </g><g id="notion-avatar-beard">      <!--?xml version="1.0" encoding="UTF-8"?-->    <title>Beard/ 0</title>    <g id="Beard/-0" stroke="none" stroke-width="1" fill="none" fill-rule="evenodd"/>    </g>      </g>      </svg>